<?xml version="1.0" standalone="yes"?>

<svg version="1.1" viewBox="0.0 0.0 800.0 600.0" fill="none" stroke="none" stroke-linecap="square" stroke-miterlimit="10" xmlns="http://www.w3.org/2000/svg" xmlns:xlink="http://www.w3.org/1999/xlink"><clipPath id="p.0"><path d="m0 0l800.0 0l0 600.0l-800.0 0l0 -600.0z" clip-rule="nonzero"></path></clipPath><g clip-path="url(#p.0)"><path fill="#000000" fill-opacity="0.0" d="m0 0l800.0 0l0 600.0l-800.0 0z" fill-rule="evenodd"></path><path fill="#1976d2" d="m362.0 112.99776l0 0c0 -10.492172 8.505585 -18.997757 18.997742 -18.997757l274.00452 0c5.038513 0 9.8706665 2.0015411 13.433411 5.564316c3.5628052 3.562767 5.564331 8.39492 5.564331 13.433441l0 75.98874c0 10.492172 -8.505615 18.997757 -18.997742 18.997757l-274.00452 0c-10.492157 0 -18.997742 -8.505585 -18.997742 -18.997757z" fill-rule="evenodd"></path><path fill="#000000" fill-opacity="0.0" d="m209.98425 73.48819l584.0 0l0 109.98425l-584.0 0z" fill-rule="evenodd"></path><path fill="#1976d2" d="m275.328 181.94568q1.21875 1.34375 1.21875 3.359375q0 2.46875 -2.015625 4.140625q-1.671875 1.34375 -3.578125 1.34375q-2.46875 0 -4.03125 -2.015625l-21.28125 -26.3125l-5.59375 4.921875l0 17.140625q0 2.453125 -1.515625 3.96875q-1.515625 1.515625 -3.984375 1.515625q-2.453125 0 -3.96875 -1.515625q-1.515625 -1.515625 -1.515625 -3.96875l0 -76.49999q0 -2.46875 1.515625 -3.96875q1.515625 -1.515625 3.96875 -1.515625q2.46875 0 3.984375 1.515625q1.515625 1.5 1.515625 3.96875l0 45.578117l27.203125 -24.296875q1.46875 -1.4531174 3.484375 -1.4531174q2.34375 0 3.796875 1.7812424q1.46875 1.46875 1.46875 3.484375q0 2.34375 -1.796875 3.796875l-20.609375 18.375l21.734375 26.65625zm24.290497 8.0625q-2.453125 0 -4.078125 -1.625q-1.625 -1.625 -1.625 -4.09375l0 -49.828125q0 -2.578125 1.625 -4.140625q1.625 -1.578125 4.078125 -1.578125q2.578125 0 4.140625 1.578125q1.578125 1.5625 1.578125 4.140625l0 49.828125q0 2.46875 -1.578125 4.09375q-1.5625 1.625 -4.140625 1.625zm0 -71.23437q-3.015625 0 -5.203125 -2.171875q-2.1875 -2.1875 -2.1875 -5.21875q0 -3.015625 2.1875 -5.203125q2.1875 -2.1875 5.203125 -2.1875q3.03125 0 5.203125 2.1875q2.1875 2.1875 2.1875 5.203125q0 3.03125 -2.1875 5.21875q-2.171875 2.171875 -5.203125 2.171875zm53.0896 60.031242q2.015625 0 3.40625 1.578125q1.40625 1.5625 1.40625 4.03125q0 2.453125 -1.84375 4.03125q-1.84375 1.5625 -4.75 1.5625l-2.015625 0q-5.5 0 -10.03125 -2.859375q-4.53125 -2.859375 -7.109375 -7.78125q-2.578125 -4.921875 -2.578125 -11.09375l0 -27.65625l-5.15625 0q-2.34375 0 -3.8125 -1.34375q-1.453125 -1.34375 -1.453125 -3.359375q0 -2.25 1.453125 -3.59375q1.46875 -1.34375 3.8125 -1.34375l5.15625 0l0 -16.124992q0 -2.453125 1.5625 -4.015625q1.578125 -1.578125 4.03125 -1.578125q2.46875 0 4.03125 1.578125q1.578125 1.5625 1.578125 4.015625l0 16.124992l9.515625 0q2.359375 0 3.8125 1.34375q1.453125 1.34375 1.453125 3.59375q0 2.015625 -1.453125 3.359375q-1.453125 1.34375 -3.8125 1.34375l-9.515625 0l0 27.65625q0 4.484375 2.453125 7.515625q2.46875 3.015625 6.0625 3.015625l3.796875 0z" fill-rule="nonzero"></path><path fill="#ffffff" d="m378.4795 190.00818q-2.359375 0 -4.09375 -1.671875q-1.734375 -1.6875 -1.734375 -4.15625l0 -75.81249q0 -2.46875 1.734375 -4.140625q1.734375 -1.6875 4.09375 -1.6875q2.453125 0 4.125 1.6875q1.6875 1.671875 1.6875 4.140625l0 33.593742l37.078125 -37.078117q1.34375 -1.34375 2.40625 -1.84375q1.0625 -0.5 2.40625 -0.5q2.359375 0 3.640625 1.40625q1.28125 1.390625 1.28125 3.40625q0 2.90625 -2.125 5.046875l-28.5625 28.671867l29.125 39.640625q1.125 1.5625 1.125 3.578125q0 2.25 -1.46875 3.984375q-1.453125 1.734375 -3.6875 1.734375q-3.140625 0 -4.8125 -2.46875l-28.34375 -38.40625l-8.0625 8.0625l0 26.984375q0 2.46875 -1.6875 4.15625q-1.671875 1.671875 -4.125 1.671875zm95.532104 0.453125q-8.96875 0 -16.03125 -3.96875q-7.046875 -3.984375 -10.96875 -11.03125q-3.921875 -7.0625 -3.921875 -16.03125q0 -9.0625 3.921875 -16.125q3.921875 -7.0625 10.96875 -11.03125q7.0625 -3.984375 16.03125 -3.984375q8.84375 0 15.84375 3.984375q7.0 3.96875 10.96875 11.03125q3.984375 7.0625 3.984375 16.125q0 8.96875 -3.921875 16.03125q-3.921875 7.046875 -10.921875 11.03125q-7.0 3.96875 -15.953125 3.96875zm0 -10.078125q5.703125 0 10.234375 -2.6875q4.546875 -2.703125 7.0625 -7.453125q2.53125 -4.765625 2.53125 -10.8125q0 -6.046875 -2.53125 -10.859375q-2.515625 -4.8125 -7.0625 -7.5q-4.53125 -2.6875 -10.234375 -2.6875q-5.71875 0 -10.25 2.6875q-4.53125 2.6875 -7.109375 7.5q-2.578125 4.8125 -2.578125 10.859375q0 6.046875 2.578125 10.8125q2.578125 4.75 7.109375 7.453125q4.53125 2.6875 10.25 2.6875zm100.6781 -77.84374q2.578125 0 4.140625 1.5625q1.578125 1.5625 1.578125 4.140625l0 51.078117q0 8.734375 -4.09375 15.84375q-4.078125 7.109375 -11.078125 11.203125q-7.0 4.09375 -15.625 4.09375q-8.625 0 -15.734375 -4.09375q-7.109375 -4.09375 -11.15625 -11.203125q-4.03125 -7.109375 -4.03125 -15.84375q0 -8.734375 3.75 -15.84375q3.765625 -7.109375 10.3125 -11.140625q6.546875 -4.046875 14.609375 -4.046875q6.5 0 12.09375 2.6875q5.609375 2.6875 9.53125 7.515625l0 -30.249992q0 -2.578125 1.625 -4.140625q1.625 -1.5625 4.078125 -1.5625zm-25.078125 77.84374q5.59375 0 10.125 -2.75q4.546875 -2.75 7.125 -7.5625q2.578125 -4.8125 2.578125 -10.75q0 -5.9375 -2.578125 -10.6875q-2.578125 -4.765625 -7.125 -7.5q-4.53125 -2.75 -10.125 -2.75q-5.609375 0 -10.140625 2.75q-4.53125 2.734375 -7.171875 7.5q-2.625 4.75 -2.625 10.6875q0 5.9375 2.625 10.75q2.640625 4.8125 7.171875 7.5625q4.53125 2.75 10.140625 2.75zm105.95477 -21.953125q0 2.125 -1.46875 3.53125q-1.453125 1.390625 -3.6875 1.390625l-42.5625 0q1.234375 7.84375 7.109375 12.65625q5.890625 4.8125 14.390625 4.8125q3.359375 0 7.0 -1.21875q3.640625 -1.234375 6.0 -3.03125q1.5625 -1.234375 3.6875 -1.234375q2.140625 0 3.359375 1.125q2.015625 1.671875 2.015625 3.796875q0 2.015625 -1.78125 3.359375q-3.8125 3.03125 -9.46875 4.9375q-5.65625 1.90625 -10.8125 1.90625q-9.171875 0 -16.453125 -3.96875q-7.28125 -3.984375 -11.375 -11.03125q-4.09375 -7.0625 -4.09375 -16.03125q0 -8.953125 3.859375 -16.0625q3.875 -7.125 10.765625 -11.09375q6.890625 -3.984375 15.625 -3.984375q8.625 0 14.890625 3.8125q6.28125 3.8125 9.640625 10.640625q3.359375 6.828125 3.359375 15.6875zm-27.890625 -20.5q-8.171875 0 -13.28125 4.484375q-5.09375 4.46875 -6.4375 11.984375l37.296875 0q-1.0 -7.515625 -5.59375 -11.984375q-4.59375 -4.484375 -11.984375 -4.484375z" fill-rule="nonzero"></path><path fill="#000000" fill-opacity="0.0" d="m674.0 48.968502l89.00787 0l0 159.02362l-89.00787 0z" fill-rule="evenodd"></path></g></svg>

